<svg xmlns="http://www.w3.org/2000/svg" viewBox="0 0 1765.1 2161.56"><defs><style>.cls-1{fill:none;stroke:#fff;stroke-miterlimit:10;stroke-width:2.56px;stroke-dasharray:11.34;}</style></defs><g id="Layer_2" data-name="Layer 2"><g id="Layer_4" data-name="Layer 4"><path class="cls-1" d="M386.32,2161,276,1916c-10.16-22.57-34.73-38.46-56.19-36.37-48,4.67-128.33,4.37-156.28-44.31C49,1810,25.44,1767.89,1.12,1724.22" transform="translate(0)"/><path class="cls-1" d="M455.9,2142.68l-87.42-281.43c-8.06-25.93-32.71-46.45-56.38-47-52.92-1.14-140.47-11.91-164.43-68.61-12.46-29.52-32.53-78.44-53.19-129.21" transform="translate(0)"/><path class="cls-1" d="M525.47,2124.33,460.92,1806.5c-5.95-29.28-30.68-54.42-56.57-57.53-57.86-7-152.61-28.21-172.56-92.92-10.39-33.69-26.94-89.47-43.95-147.32" transform="translate(0)"/><path class="cls-1" d="M595.05,2106l-41.68-354.23c-3.84-32.64-28.67-62.4-56.76-68.11-62.81-12.78-164.75-44.49-180.71-117.22-8.3-37.86-21.34-100.49-34.7-165.44" transform="translate(0)"/><path class="cls-1" d="M664.63,2087.62,645.81,1697c-1.73-36-26.64-70.37-56.95-78.69C521.11,1599.72,412,1557.54,400,1476.79c-6.22-42-15.76-111.52-25.46-183.56" transform="translate(0)"/><path class="cls-1" d="M734.2,2069.27l4-427c.38-39.34-24.62-78.35-57.14-89.27-72.69-24.4-189-77.06-197-165.82C480,1341,474,1264.62,467.92,1185.49" transform="translate(0)"/><path class="cls-1" d="M803.78,2050.92,830.7,1587.5c2.48-42.69-22.6-86.32-57.33-99.84-77.64-30.23-201.17-93.35-205.12-190.13-2.06-50.38-4.58-133.56-7-219.79" transform="translate(0)"/><path class="cls-1" d="M873.36,2032.57l49.78-499.81c4.59-46-20.57-94.31-57.52-110.43-82.58-36-213.3-109.63-213.26-214.43,0-54.55,1-144.59,2.29-237.91" transform="translate(0)"/><path class="cls-1" d="M942.93,2014.21l72.66-536.2c6.69-49.4-18.56-102.28-57.71-121-87.53-41.85-225.45-125.92-221.4-238.73,2.1-58.73,6.6-155.61,11.53-256" transform="translate(0)"/><path class="cls-1" d="M1012.51,1995.86l95.52-572.6c8.8-52.76-16.53-110.26-57.9-131.58-92.47-47.67-237.58-142.21-229.54-263,4.19-62.9,12.2-166.64,20.78-274.14" transform="translate(0)"/><path class="cls-1" d="M1082.09,1977.51l118.39-609c10.9-56.11-14.52-118.23-58.09-142.16C1045,1172.87,892.66,1067.85,904.71,939c6.27-67.07,17.79-177.66,30-292.26" transform="translate(0)"/><path class="cls-1" d="M1151.66,1959.16l141.26-645.4c13-59.46-12.49-126.21-58.28-152.74-102.36-59.3-261.86-174.78-245.82-311.64,8.35-71.24,23.38-188.68,39.27-310.37" transform="translate(0)"/><path class="cls-1" d="M1221.24,1940.8,1385.37,1259c15.12-62.81-10.48-134.19-58.48-163.31-107.3-65.12-274-191.07-254-336,10.43-75.42,29-199.71,48.51-328.49" transform="translate(0)"/><path class="cls-1" d="M1290.82,1922.45l187-718.19c17.23-66.16-8.45-142.16-58.66-173.89C1306.9,959.44,1133,823,1157.05,670.13c12.52-79.6,34.56-210.74,57.76-346.62" transform="translate(0)"/><path class="cls-1" d="M1360.39,1904.1l209.86-754.58c19.34-69.52-6.42-150.15-58.85-184.48C1394.21,888.3,1213.12,741.4,1241.17,580.5c14.59-83.77,40.15-221.77,67-364.73" transform="translate(0)"/><path class="cls-1" d="M1430,1885.75l232.73-791c21.44-72.88-4.41-158.12-59-195-122.14-82.57-310.42-239.93-278.38-408.85C1342,402.93,1371,258.08,1401.53,108" transform="translate(0)"/><path class="cls-1" d="M1499.55,1867.39,1755.14,1040c23.55-76.23-2.38-166.1-59.23-205.63C1568.83,746,1373.35,578.17,1409.4,401.24c18.76-92.12,51.33-243.81,85.49-401" transform="translate(0)"/></g></g></svg>