<?xml version="1.0" encoding="utf-8"?>
<!-- Generator: Adobe Illustrator 23.0.1, SVG Export Plug-In . SVG Version: 6.00 Build 0)  -->
<svg version="1.1" id="Layer_1" xmlns="http://www.w3.org/2000/svg" xmlns:xlink="http://www.w3.org/1999/xlink" x="0px" y="0px"
	 viewBox="0 0 1000 1000" style="enable-background:new 0 0 1000 1000;" xml:space="preserve">
<style type="text/css">
	.st0{fill:#456DAA;}
	.st1{fill:#77C4D5;}
</style>
<g id="g849" transform="matrix(2.5816264,0,0,2.5816264,-11.69286,-39.011573)">
	<path id="path6" class="st0" d="M60.1,273H5.2v129.1h128.5v-55.5H60.1V273z M336.4,273.6v73h-73.6V346v56.1h128.5V273h-55.5
		L336.4,273.6z M5.2,144.5h55.5l-0.6-0.6v-73h73.6V15.4H5.2L5.2,144.5z M262.8,15.4v55.5h73.6v73.6h54.9V15.4H262.8z"/>
	<path id="path8" class="st1" d="M255.5,144.5l-73.6-73.6h80.8V15.4H133.7v55.5l73.6,73.6H255.5z M189.2,273h-48.3l60.9,60.9
		l12.1,12.7h-80.2v55.5h129.1V346L226,309.8L189.2,273z M336.4,144.5v80.2l-12.7-12.7l-60.9-60.9V200l36.2,36.2l36.8,36.8h55.5
		V144.5L336.4,144.5z M133.7,217.5l-73-73H5.2V273h54.9v-80.2l73.6,73.6V217.5z"/>
</g>
</svg>
