<svg xmlns="http://www.w3.org/2000/svg" viewBox="0 0 459.35 133.05"><defs><style>.cls-1{fill:#2841f9;}.cls-2{fill:#00b1d0;}.cls-3{fill:#1ed6b3;}.cls-4{fill:#4fdb6d;}.cls-5{fill:#a2e538;}</style></defs><g id="Layer_2" data-name="Layer 2"><g id="Layer_1-2" data-name="Layer 1"><path class="cls-1" d="M98.18,132.83H37.54A37.42,37.42,0,0,1,18.75,63a25.48,25.48,0,0,1-1.42-8.11,26,26,0,0,1,26-26,25.61,25.61,0,0,1,7.81,1.33A51.86,51.86,0,0,1,98.18,0Z"/><rect class="cls-2" x="102.62" y="0.05" width="18.25" height="18.26"/><rect class="cls-3" x="125.44" y="0.05" width="18.26" height="18.26"/><rect class="cls-2" x="102.62" y="22.96" width="18.25" height="18.25"/><rect class="cls-3" x="125.44" y="22.96" width="18.26" height="18.25"/><rect class="cls-4" x="148.26" y="22.96" width="18.25" height="18.25"/><rect class="cls-2" x="102.62" y="45.87" width="18.25" height="18.25"/><rect class="cls-3" x="125.44" y="45.87" width="18.26" height="18.25"/><rect class="cls-4" x="148.26" y="45.87" width="18.25" height="18.25"/><rect class="cls-2" x="102.62" y="68.79" width="18.25" height="18.25"/><rect class="cls-3" x="125.44" y="68.79" width="18.26" height="18.25"/><rect class="cls-4" x="148.26" y="68.79" width="18.25" height="18.25"/><rect class="cls-5" x="171.07" y="68.79" width="18.25" height="18.25"/><rect class="cls-2" x="102.62" y="91.7" width="18.25" height="18.25"/><rect class="cls-3" x="125.44" y="91.7" width="18.26" height="18.25"/><rect class="cls-4" x="148.26" y="91.7" width="18.25" height="18.25"/><rect class="cls-5" x="171.07" y="91.7" width="18.25" height="18.25"/><rect class="cls-2" x="102.62" y="114.61" width="18.25" height="18.25"/><rect class="cls-3" x="125.44" y="114.61" width="18.26" height="18.25"/><rect class="cls-4" x="148.26" y="114.61" width="18.25" height="18.25"/><path d="M214.12,54.64c0-14,8.72-22.1,20.31-22.1A21.76,21.76,0,0,1,245.28,35l-1.07,2.7a23.78,23.78,0,0,0-9.78-1.85c-9.51,0-16.31,6.41-16.31,18.56,0,12.93,6.58,18,14.79,18a17.68,17.68,0,0,0,10.68-3.15L245,72a21.18,21.18,0,0,1-12.54,3.76C221.49,75.73,214.12,69.21,214.12,54.64Z"/><path d="M277,60.38c0,10.12-5.12,15.35-13.16,15.35s-13.17-5.23-13.17-15.35S255.74,45,263.79,45,277,50.2,277,60.38Zm-3.77,0c0-8.66-3.88-12.43-9.39-12.43s-9.4,3.77-9.4,12.43,3.83,12.37,9.4,12.37,9.39-3.77,9.39-12.37Z"/><path d="M307.32,57.29V75h-3.6V56c0-5.85-2.25-8-7.37-8a11.92,11.92,0,0,0-7.65,2.92V75h-3.64V45.87l3.6-.51V48a15.29,15.29,0,0,1,9-3c5.45,0,9,2.08,9.5,7.87A36.44,36.44,0,0,1,307.32,57.29Z"/><path d="M331.06,74.33a12.4,12.4,0,0,1-5.79,1.4c-4.56,0-6.47-2.64-6.69-5.9-.12-1.52-.12-2.87-.12-4.89V48.57h-4.27V45.76h4.27V38.5l3.6-.62v7.88h8.66l-.45,2.81h-8.21V66.4c0,4.83,1.3,6.3,4.67,6.3a8.88,8.88,0,0,0,3.6-.73Z"/><path d="M354.22,75.4l-.67-2.87a15.82,15.82,0,0,1-9.17,3.2c-4.84,0-8.49-2.25-8.49-8.83,0-5.9,4.67-8.88,11.87-8.88a27.83,27.83,0,0,1,5.68.62V54.92c0-4.38-2-7-7.15-7a15,15,0,0,0-7.2,1.91l-1-2.44a18,18,0,0,1,9-2.42c5.79,0,9.56,2.87,9.9,8.21.06,1.29.06,2.59.06,4.5V68.31a26,26,0,0,0,.73,6.64Zm-8.6-2.59a13.94,13.94,0,0,0,7.82-2.64V61.34a32.48,32.48,0,0,0-5.91-.45c-4.89,0-7.93,1.68-7.93,5.73S341.68,72.81,345.62,72.81Z"/><path d="M367.06,35a7.82,7.82,0,0,1,3.6,0v4.67a7.82,7.82,0,0,1-3.6,0Zm.06,10.86,3.6-.51V75h-3.6Z"/><path d="M403.38,57.29V75h-3.6V56c0-5.85-2.25-8-7.37-8a12,12,0,0,0-7.65,2.92V75h-3.6V45.87l3.6-.51V48a15.29,15.29,0,0,1,9-3c5.46,0,9,2.08,9.51,7.87C403.38,54.14,403.38,55.37,403.38,57.29Z"/><path d="M431.44,71.08l.85,2.64a21.06,21.06,0,0,1-9.34,2c-8.49,0-12.26-4.55-12.26-15,0-11.25,4.84-15.8,12.21-15.8,6.52,0,9.72,3.77,10.17,11.19.12,1.86.12,3.09.12,4.89h-19c.23,8.83,3.32,11.65,8.95,11.65A19.54,19.54,0,0,0,431.44,71.08ZM414.35,58.24H429.7c-.17-7.87-2.14-10.29-7-10.29C417.66,48,414.68,50.76,414.35,58.24Z"/><path d="M441.68,46.08l3.6-.51v3.6c1.41-3,3.66-4.16,5.91-4.16a4.9,4.9,0,0,1,3,.84l-.39,3a9,9,0,0,0-3-.45c-2.59,0-4.45,1.41-5.57,4V75h-3.6Z"/><path d="M212.92,130l1.59-7a25.82,25.82,0,0,0,10.35,2.2c4.51,0,6.49-2,6.49-4.29s-1.43-3.91-7-6.28c-5.78-2.47-9.9-5.11-9.9-11.66,0-6.82,6.1-12.33,14.91-12.33A24.2,24.2,0,0,1,240.14,93l-1.59,6.77a25.84,25.84,0,0,0-8.26-1.43c-2.86,0-5.72,1.43-5.72,3.68s1.32,4,6.16,5.84c6.66,2.58,10.73,5.72,10.73,11.66,0,8.42-7.32,13.37-17.22,13.37A23.57,23.57,0,0,1,212.92,130Z"/><path d="M275.42,117.76c0,10-5.94,15.29-15.41,15.29s-15.4-5.28-15.4-15.29,5.94-15.3,15.4-15.3S275.42,107.74,275.42,117.76Zm-9.9,0c0-5.4-1.71-7.82-5.51-7.82s-5.5,2.42-5.5,7.82,1.71,7.81,5.5,7.81S265.52,123.15,265.52,117.76Z"/><path d="M280.06,91.08l9.9-.55v41.55h-9.9Z"/><path d="M324,103v29.13h-9.94v-2.36a14.7,14.7,0,0,1-8.31,2.91c-6.44,0-9.57-3.41-10-9-.11-1.26-.11-3.13-.11-5V103.51l9.9-.56v16.24c0,4.23,1.27,5.94,4.35,5.94a6.62,6.62,0,0,0,4.18-1.71V103.51Z"/><path d="M349.92,125l.77,6a23.06,23.06,0,0,1-9.41,1.87c-5.39,0-7.92-2.53-8.31-6.38a60.85,60.85,0,0,1-.27-7.27v-8.86h-4.19v-7.15h4.19V97.45l9.9-2.8v8.58h8.25l-1,7.15h-7.26v9.36c0,4.29.94,5.66,4.18,5.66A13.37,13.37,0,0,0,349.92,125Z"/><path d="M354.92,90.46a43.22,43.22,0,0,1,9.91,0v8.48a43.22,43.22,0,0,1-9.91,0Zm0,13.05,9.91-.56v29.13h-9.91Z"/><path d="M400.32,117.76c0,10-5.95,15.29-15.41,15.29s-15.41-5.28-15.41-15.29,5.95-15.3,15.41-15.3S400.32,107.74,400.32,117.76Zm-9.91,0c0-5.4-1.7-7.82-5.5-7.82s-5.5,2.42-5.5,7.82,1.7,7.81,5.5,7.81S390.41,123.15,390.41,117.76Z"/><path d="M433.33,116.44v15.64h-9.91V115.89c0-4.24-1.1-6-4.45-6a6.44,6.44,0,0,0-4.07,1.6v20.59H405V103.51l9.91-.56v2.26a15.72,15.72,0,0,1,8.3-2.75c6.44,0,9.52,3.41,10,9C433.33,112.69,433.33,114.56,433.33,116.44Z"/><path d="M437.62,130.47l1.32-6.5a17.31,17.31,0,0,0,8.14,1.93c2,0,2.75-.72,2.75-1.93s-1.1-2.2-3.9-3.46c-4.46-2-7.21-4.18-7.21-9.3,0-5.94,5.61-8.75,11.23-8.75a16.32,16.32,0,0,1,8.36,1.93l-.88,6.21a17,17,0,0,0-6.61-1.21c-1.76,0-2.69.77-2.69,1.82,0,1.26,1.7,2.2,4.4,3.41,5.06,2.2,6.82,4.9,6.82,9.24,0,6.33-5.28,9-11.94,9A19.56,19.56,0,0,1,437.62,130.47Z"/></g></g></svg>