<svg xmlns="http://www.w3.org/2000/svg" xmlns:xlink="http://www.w3.org/1999/xlink" viewBox="0 0 1765.1 2161.56"><defs><style>.cls-1,.cls-3{fill:none;}.cls-2{clip-path:url(#clip-path);}.cls-3{stroke:#fff;stroke-miterlimit:10;stroke-width:2.56px;stroke-dasharray:11.34;}</style><clipPath id="clip-path" transform="translate(-730.82 1186.49)"><rect class="cls-1" width="2266.86" height="481.64"/></clipPath></defs><g id="Layer_2" data-name="Layer 2"><g id="Layer_4" data-name="Layer 4"><g class="cls-2"><path class="cls-3" d="M1117.14,974.54l-110.29-245c-10.16-22.58-34.72-38.46-56.19-36.38-48,4.67-128.33,4.37-156.28-44.31-14.55-25.34-38.12-67.42-62.44-111.09" transform="translate(-730.82 1186.49)"/><path class="cls-3" d="M1186.72,956.19,1099.3,674.75c-8.06-25.93-32.71-46.44-56.38-47C990,626.65,902.45,615.88,878.5,559.18,866,529.67,846,480.74,825.3,430" transform="translate(-730.82 1186.49)"/><path class="cls-3" d="M1256.29,937.84,1191.74,620c-5.94-29.28-30.68-54.42-56.57-57.53-57.86-7-152.61-28.2-172.56-92.92-10.39-33.69-26.94-89.46-44-147.32" transform="translate(-730.82 1186.49)"/><path class="cls-3" d="M1325.87,919.48l-41.68-354.23c-3.84-32.63-28.67-62.39-56.76-68.11-62.81-12.77-164.75-44.49-180.7-117.22-8.31-37.86-21.35-100.49-34.71-165.44" transform="translate(-730.82 1186.49)"/><path class="cls-3" d="M1395.45,901.13l-18.82-390.62c-1.73-36-26.64-70.38-57-78.69-67.75-18.6-176.89-60.78-188.84-141.53-6.22-42-15.76-111.51-25.46-183.55" transform="translate(-730.82 1186.49)"/><path class="cls-3" d="M1465,882.78l4.06-427c.37-39.34-24.63-78.35-57.14-89.27-72.7-24.41-189-77.06-197-165.82-4.14-46.21-10.16-122.54-16.21-201.68" transform="translate(-730.82 1186.49)"/><path class="cls-3" d="M1534.6,864.42,1561.52,401c2.48-42.7-22.6-86.33-57.33-99.85C1426.55,270.94,1303,207.81,1299.07,111c-2.06-50.39-4.58-133.57-7-219.8" transform="translate(-730.82 1186.49)"/><path class="cls-3" d="M1604.18,846.07,1654,346.26c4.59-46.05-20.57-94.3-57.52-110.42-82.58-36-213.3-109.64-213.26-214.43,0-54.56,1-144.59,2.29-237.91" transform="translate(-730.82 1186.49)"/><path class="cls-3" d="M1673.75,827.72l72.66-536.21c6.69-49.4-18.56-102.28-57.71-121-87.53-41.85-225.45-125.92-221.4-238.73,2.1-58.73,6.61-155.62,11.53-256" transform="translate(-730.82 1186.49)"/><path class="cls-3" d="M1743.33,809.37l95.52-572.61c8.8-52.75-16.53-110.25-57.9-131.58-92.47-47.67-237.58-142.21-229.54-263,4.19-62.9,12.2-166.64,20.78-274.15" transform="translate(-730.82 1186.49)"/><path class="cls-3" d="M1812.91,791,1931.3,182c10.91-56.1-14.52-118.23-58.09-142.15-97.42-53.49-249.73-158.5-237.68-287.34,6.27-67.08,17.79-177.66,30-292.26" transform="translate(-730.82 1186.49)"/><path class="cls-3" d="M1882.48,772.66l141.26-645.39c13-59.46-12.49-126.21-58.28-152.74-102.36-59.3-261.86-174.78-245.82-311.64,8.36-71.25,23.38-188.69,39.27-310.38" transform="translate(-730.82 1186.49)"/><path class="cls-3" d="M1952.06,754.31,2116.19,72.52c15.12-62.82-10.47-134.19-58.47-163.32-107.31-65.11-274-191.07-254-335.94,10.43-75.42,29-199.71,48.51-328.5" transform="translate(-730.82 1186.49)"/><path class="cls-3" d="M2021.64,736l187-718.19c17.23-66.17-8.45-142.17-58.66-173.89-112.25-70.94-286.14-207.36-262.1-360.25,12.52-79.59,34.56-210.74,57.76-346.61" transform="translate(-730.82 1186.49)"/><path class="cls-3" d="M2091.21,717.6,2301.08-37c19.33-69.52-6.43-150.14-58.86-184.47C2125-298.2,1944-445.09,1972-606c14.6-83.77,40.15-221.76,67-364.73" transform="translate(-730.82 1186.49)"/><path class="cls-3" d="M2160.79,699.25l232.73-791c21.44-72.87-4.41-158.12-59-195-122.14-82.56-310.42-239.93-278.38-408.85,16.68-87.94,45.75-232.78,76.26-382.85" transform="translate(-730.82 1186.49)"/><path class="cls-3" d="M2230.37,680.9,2486-146.48c23.55-76.22-2.38-166.09-59.23-205.62-127.08-88.38-322.55-256.22-286.51-433.16,18.76-92.11,51.33-243.81,85.5-401" transform="translate(-730.82 1186.49)"/></g></g></g></svg>