<svg xmlns="http://www.w3.org/2000/svg" viewBox="0 0 328.43 412.24"><defs><style>.cls-1{fill:none;stroke:#fff;stroke-linecap:round;stroke-miterlimit:10;stroke-width:15.33px;}.cls-2{fill:#fff;}</style></defs><g id="Layer_2" data-name="Layer 2"><g id="Layer_4" data-name="Layer 4"><path class="cls-1" d="M264.66,215c34.3,6.28,56.11,15.71,56.11,26.27,0,18.91-70.09,34.24-156.55,34.24S7.66,260.17,7.66,241.26c0-11.9,27.73-22.38,69.82-28.52"/><path class="cls-1" d="M316.19,306.11c0,54.38-68,98.47-152,98.47s-152-44.09-152-98.47"/><path class="cls-2" d="M158.64,242.21l39.52-102.54c3.64-9.44,1.23-21.07-5.5-26.59-15.06-12.35-37.93-35.4-31.8-57.49,3.19-11.5,8.65-30.43,14.36-50,1.39-4.75-3.68-7.88-5.42-3.35L130.27,104.74c-3.64,9.44-1.23,21.07,5.51,26.59,15.06,12.35,37.92,35.39,31.8,57.49-3.19,11.5-8.66,30.43-14.37,50C151.83,243.61,156.89,246.73,158.64,242.21Z"/></g></g></svg>