<svg xmlns="http://www.w3.org/2000/svg" viewBox="0 0 1265.43 192.13"><defs><style>.cls-1,.cls-2{fill:none;stroke:#fff;stroke-linecap:round;stroke-miterlimit:10;}.cls-1{stroke-width:10px;}.cls-2{stroke-width:9.71px;}.cls-3,.cls-4{fill:#fff;}.cls-4{font-size:76px;font-family: 'Asap', sans-serif;font-weight:700;}</style></defs><g id="Layer_2" data-name="Layer 2"><g id="Layer_4" data-name="Layer 4"><path class="cls-1" d="M120.17,96.34c15.37,2.82,25.14,7,25.14,11.77,0,8.48-31.41,15.35-70.15,15.35S5,116.59,5,108.11c0-5.33,12.43-10,31.29-12.77"/><path class="cls-2" d="M143.26,137.18c0,24.37-30.49,44.13-68.1,44.13S7.05,161.55,7.05,137.18"/><path class="cls-3" d="M72.66,108.54,90.37,62.59c1.63-4.23.55-9.44-2.47-11.92-6.75-5.53-17-15.86-14.25-25.76,1.43-5.15,3.88-13.64,6.44-22.42C80.71.36,78.44-1,77.66,1L60,46.94c-1.64,4.23-.56,9.44,2.46,11.91,6.75,5.54,17,15.86,14.25,25.77-1.43,5.15-3.88,13.63-6.43,22.42C69.61,109.17,71.87,110.57,72.66,108.54Z"/><text class="cls-4" transform="translate(327.02 148.25)">JAVA OPERATOR SDK </text><path class="cls-1" d="M1183.32,187.13h34.83a5,5,0,0,0,5-5V80.91a5,5,0,0,0-5-5h-34.83"/><path class="cls-1" d="M306.15,67.91H271.32a5,5,0,0,0-5,5V174.13a5,5,0,0,0,5,5h34.83"/></g></g></svg>